<?xml version="1.0" encoding="utf-8"?>
<!-- Generator: Adobe Illustrator 19.0.0, SVG Export Plug-In . SVG Version: 6.00 Build 0)  -->
<svg version="1.1" id="Layer_1" xmlns="http://www.w3.org/2000/svg" xmlns:xlink="http://www.w3.org/1999/xlink" x="0px" y="0px"
	 viewBox="0 0 306.4 108.2" style="enable-background:new 0 0 306.4 108.2;" xml:space="preserve">
<style type="text/css">
	.st0{fill:#F7931E;}
	.st1{fill:#999999;}
	.st2{fill:none;}
	.st3{fill:#000000;}
</style>
<path id="XMLID_275_" class="st0" d="M227.4,59.6c-0.7-0.8-0.1-2.1,1-2.1l0.2,0l1.6,0.1c0.1,0,0.8,0,1.1,0c8.2,0,15-6.7,15-15
	c0-1.1-0.1-2.1-0.3-3.1c-0.2-1.2,1.1-2,2-1.2c7.9,7,21.4,20.1,31.3,28.9c0.8,0.7,0.1,1.9-0.9,1.8c-1.4-0.3-2.9-0.4-4.4-0.3
	c-9.5,0.5-16.8,8.5-16.8,18c0,0.9,0,1.8,0,2.6c0,0.9-1.2,1.4-1.8,0.7C251.9,85.9,232.9,65.9,227.4,59.6z"/>
<path id="XMLID_285_" class="st1" d="M177.3,79c0-0.3,20.5-76.4,20.5-76.4c0.5-1.9,2.5-3,4.4-2.5l2.2,0.6c1.9,0.5,3,2.5,2.5,4.4
	l-20.3,75.6c0,0-0.2,0.4-0.3,0.8c-3.4,8.4-7.9,15.1-7.9,15.1c-0.4,0.5-0.8,0.7-1.1,0.7l0,0l0,0l0,0h0c-0.3,0-0.5-0.5-0.6-1.1
	C176.8,96.1,176.4,84.5,177.3,79z"/>
<g id="XMLID_277_">
	<g id="XMLID_373_">
		<g id="XMLID_374_">
			<circle id="XMLID_378_" class="st0" cx="231.9" cy="42.5" r="5.2"/>
			<path id="XMLID_375_" class="st0" d="M231.2,28.3c-0.3,0-1.1,0-1.1,0L202.1,30c-0.5,0-0.9,0.4-1,0.8l-6,22.4
				c-0.2,0.7,0.3,1.4,1,1.4l33.9,2c0,0,0.8,0,1.1,0c7.9,0,14.2-6.4,14.2-14.2C245.4,34.6,239,28.3,231.2,28.3z M241.2,46.2l-0.6,1.3
				l-0.8,1.2l-1.1-0.5c-0.3,0.4-0.7,0.7-1.1,1.1l0.5,1.1l-1.2,0.8l-1.3,0.6l-0.7-1c-0.5,0.2-0.9,0.3-1.4,0.4l-0.1,1.2l-1.5,0.1
				l-1.5-0.1l-0.1-1.2c-0.5-0.1-1-0.2-1.4-0.4l-0.6,1l-1.3-0.6l-1.2-0.8l0.5-1.1c-0.4-0.3-0.7-0.7-1.1-1.1l-1.1,0.5l-0.8-1.2
				l-0.6-1.3l1-0.6c-0.2-0.5-0.3-0.9-0.4-1.4l-1.2-0.1l-0.1-1.5l0.1-1.5l1.2-0.1c0.1-0.5,0.2-1,0.4-1.4l-1-0.6l0.6-1.3l0.8-1.2
				l1.1,0.5c0.3-0.4,0.7-0.7,1.1-1.1l-0.5-1.1l1.2-0.8l1.3-0.6l0.7,1c0.5-0.2,0.9-0.3,1.4-0.4l0.1-1.2l1.5-0.1l1.5,0.1l0.1,1.2
				c0.5,0.1,1,0.2,1.4,0.4l0.7-1l1.3,0.6l1.2,0.8l-0.5,1.1c0.4,0.3,0.7,0.7,1.1,1.1l1.1-0.5l0.8,1.2l0.6,1.3l-1,0.6
				c0.2,0.5,0.3,0.9,0.4,1.4l1.2,0.1l0.1,1.5l-0.1,1.5l-1.2,0.1c-0.1,0.5-0.2,1-0.4,1.4L241.2,46.2z"/>
		</g>
	</g>
</g>
<g id="XMLID_272_">
	<g id="XMLID_367_">
		<g id="XMLID_368_">
			<circle id="XMLID_372_" class="st0" cx="275.6" cy="87.4" r="6.2"/>
			<path id="XMLID_369_" class="st0" d="M300.7,106.9l-3.7-8c-0.5-1.1-1.6-1.7-2.7-1.7h-1.5v-10c0-9.4-7.7-17.1-17.1-17.1
				c-9.4,0-17.1,7.7-17.1,17.1v10h-1.5c-1.2,0-2.2,0.7-2.7,1.7l-3.7,8c-0.3,0.6,0.1,1.2,0.8,1.2h48.6
				C300.6,108.2,301,107.5,300.7,106.9z M287.5,89.2l-1.4,0.1c-0.1,0.6-0.3,1.2-0.5,1.7l1.2,0.8l-0.8,1.6l-1,1.5l-1.3-0.6
				c-0.4,0.5-0.8,0.9-1.3,1.3l0.6,1.3l-1.5,1l-1.6,0.8l-0.8-1.2c-0.6,0.2-1.1,0.4-1.7,0.5l-0.1,1.4l-1.8,0.1l-1.8-0.1l-0.1-1.4
				c-0.6-0.1-1.2-0.3-1.7-0.5l-0.8,1.2l-1.6-0.8l-1.5-1l0.6-1.3c-0.5-0.4-0.9-0.8-1.3-1.3l-1.3,0.6l-1-1.5l-0.8-1.6l1.2-0.8
				c-0.2-0.6-0.4-1.1-0.5-1.7l-1.4-0.1l-0.1-1.8l0.1-1.8l1.4-0.1c0.1-0.6,0.3-1.2,0.5-1.7l-1.2-0.8l0.8-1.6l1-1.5l1.3,0.6
				c0.4-0.5,0.8-0.9,1.3-1.3l-0.6-1.3l1.5-1l1.6-0.8l0.8,1.2c0.6-0.2,1.1-0.4,1.7-0.5l0.1-1.4l1.8-0.1l1.8,0.1l0.1,1.4
				c0.6,0.1,1.2,0.3,1.7,0.5l0.8-1.2l1.6,0.8l1.5,1l-0.6,1.3c0.5,0.4,0.9,0.8,1.3,1.3L285,80l1,1.5l0.8,1.6l-1.2,0.8
				c0.2,0.6,0.4,1.1,0.5,1.7l1.4,0.1l0.1,1.8L287.5,89.2z"/>
		</g>
	</g>
</g>
<g id="XMLID_408_">
	<rect id="XMLID_312_" y="29.3" class="st2" width="203" height="68.6"/>
	<path id="XMLID_280_" class="st3" d="M9,60.1L9.8,93c0,1-0.1,1.7-0.4,2.3c-0.3,0.5-0.8,0.8-1.7,0.8c-0.9,0-1.3-1.2-1.3-3.5l0.4-17.9L6,58.5
		C6,51.1,5.9,45,5.7,40.2c-0.2-4.8-0.3-8-0.3-9.6c0-1.6-0.1-2.8-0.1-3.6c-0.2-2.6-0.5-4.7-0.9-6.4C5,19.6,5.9,19.1,7,19.1
		c2.4,0,4.5,0.6,6.4,1.7c1.9,1.1,3.4,2.6,4.6,4.3c2.3,3.7,3.5,7.6,3.5,11.5s-0.7,7.9-2.1,11.9c-1.8,5.1-4,8.2-6.7,9.4
		c-0.9,0.4-1.5,0.7-1.8,1.1C10.3,59.6,9.7,60,9,60.1z M7.6,22l1.2,34.2L9,56.4c0.7-0.1,1.2-0.3,1.5-0.6c0.3-0.3,0.7-0.6,1-1
		c0.3-0.4,0.6-0.6,0.7-0.7c4.3-4.3,6.5-9.8,6.5-16.3c0-2.3-0.1-4.1-0.3-5.5s-0.8-2.7-1.7-3.9c-0.9-1.3-1.7-2.2-2.4-2.7
		c-0.7-0.6-1.6-1.3-2.8-2.2c-1.2-0.9-1.9-1.4-2.1-1.5H7.6z"/>
	<path id="XMLID_286_" class="st3" d="M35.5,93.2l9.4,0.3h0.3c0.4,0,0.7,0.2,1,0.6c0.3,0.4,0.5,0.8,0.5,1.1c0,0.7-0.5,1.2-1.6,1.3
		c-1.7-0.1-4.5-0.1-8.3-0.1l0.2,0.1l-3.7,0.3c-0.9,0-1.5-0.8-1.7-2.3c0.1-0.7,0.2-1.8,0.2-3.3l0.6-53.3l0.5-6.6
		c0-0.5,0.2-0.7,0.7-0.7l1.7,0.4l-0.1,7.9l0.1,21.8c-0.2,5.5-0.3,8.3-0.3,8.4l0.2,8.5L35,78.4l0.1-0.1L35,79.1c0,0.6,0.1,1,0.3,1.4
		L35,90.1v0.6c0,1,0,1.7,0.1,2C35.1,93.1,35.3,93.2,35.5,93.2z"/>
	<path id="XMLID_290_" class="st3" d="M77.9,56.9l0.2,11.9c0,15-2.4,24.1-7.2,27.4c-1.2,0.8-2.5,1.2-4,1.2c-7.8,0-11.7-12.3-11.7-36.8
		c0-9.5,0.7-17.7,2-24.7c1-5.1,2.5-7.6,4.4-7.6c0.5,0,0.9,0.2,1.3,0.5c0.4,0.4,1,0.7,1.7,0.9c0.7,0.2,1.7,0.5,2.9,0.7
		c1.2,0.2,2.1,0.4,2.6,0.5c1.3,0.2,2.6,1.5,3.9,3.9c2.8,4.8,4.2,11.9,4.2,21.6L77.9,56.9z M58.4,60.5l0.2,7.9
		c0,6.3,0.7,12.4,2.1,18.1c0.5,2.1,1.3,4,2.3,5.6c1,1.6,2.2,2.4,3.5,2.4s2.5-0.5,3.5-1.5c1-1,1.8-2.3,2.4-4.1
		c0.6-1.7,1.1-3.5,1.5-5.3s0.7-3.8,0.8-6.1C74.9,74,75,70.8,75,68l-1.1-23.6l-0.4-0.8l0.2-0.5c0-2.9-0.8-5.4-2.4-7.6
		c-1.6-2.1-3.6-3.2-6-3.2h-4.2c-0.6,0-1,3-1.5,8.9c-0.4,5.9-0.7,9.2-0.8,9.9L58.4,60.5z"/>
	<path id="XMLID_295_" class="st3" d="M103.9,32.8l-5.4-0.7L98,32.7l0.2,0.4c-0.1,0.3-0.2,2.2-0.2,5.7c0,3.5,0.6,11.8,1.7,24.9
		c1.1,13,1.7,22.8,1.7,29.3c0,0.5-0.2,0.9-0.6,1.3s-0.8,0.6-1.3,0.6l-1.1-0.8l-0.2-7.3l0.2-3.5c0-0.9-0.1-1.7-0.4-2.4
		c0-5.7-0.4-13.9-1.2-24.8c-0.8-10.8-1.2-18.8-1.3-24c-5.2,0-8-0.6-8.4-1.9c0.3-0.7,0.9-1.1,1.9-1.1l13.6,0.9l1.8-0.1
		c1.2,0,1.8,0.4,1.8,1.3c0,0.5-0.2,0.8-0.7,1.1C104.9,32.7,104.4,32.8,103.9,32.8z"/>
	<path id="XMLID_299_" class="st3" d="M130.8,94.7l-3.3-0.3c-0.5,0-1.1,0.2-1.9,0.6c-0.7,0.4-1.6,0.6-2.6,0.6c-1,0-1.6-0.3-1.9-1l-1.7,0.1
		c-1.4,0-2.3-0.3-2.7-1c0-0.4,0.2-0.8,0.6-1c0.4-0.3,0.6-0.5,0.8-0.7h2.9l0.4-0.4l0.3-2.1l-0.7-21.9l0.5-23.3
		c0-4.5-0.2-8.4-0.5-11.6c-0.7-0.2-1.6-0.3-3-0.3l-2.4,0.2c-1.3,0-1.9-0.6-1.9-1.7c0-0.3,0.3-0.6,0.9-0.8c0.6-0.3,1.1-0.4,1.5-0.4
		c9.3,0,13.9,1,13.9,3c0,0.2-0.1,0.5-0.2,0.8l-2.3,0.2c-0.5-0.4-1.5-0.6-2.9-0.6l-0.5,0.3c0.2,0.6,0.3,2.4,0.3,5.3l-0.3,23.8
		l0.7,21.9l-0.1,3.1c0,1.6,0.1,2.5,0.3,2.8l-0.1,0.2c0,0.7,0.7,1,2.2,1l2.9-0.1c2,0,3,0.5,3,1.4c0,0.6-0.2,1.1-0.6,1.4
		C131.9,94.6,131.4,94.7,130.8,94.7z"/>
	<path id="XMLID_303_" class="st3" d="M145.5,78.6l0.6,14.3c0,2.7-0.8,4-2.4,4l-2-1.5c0.6-6.4,0.9-13.2,0.9-20.3s0.2-15.2,0.7-24.1
		c0.5-9,0.7-15.7,0.7-20.1c0-0.6,0.3-1.1,0.9-1.4c0.6-0.3,1.5-0.5,2.8-0.5s3.4,0.2,6.5,0.7c3,0.5,4.6,1.2,4.6,2.1
		c0,1.1-1.2,1.7-3.6,1.7c-1.2-0.7-2.6-1-4.1-1c-1.5,0-2.4,0-2.6,0.1c-0.2,0.1-0.4,0.1-0.4,0.2c-0.1,0.1-0.1,0.3-0.2,0.7
		c-0.1,0.4-0.2,0.7-0.4,1l-1,21.1v3.5c0,0.2,0.6,0.3,1.7,0.3c3.3-0.1,5,0.4,5,1.5c0,0.6-0.3,1-0.8,1.4c-0.5,0.4-1.1,0.5-1.6,0.5
		l-3.3-0.6c-1.2,0-1.8,1.6-1.8,4.9V78.6z M142.3,46L142.3,46c0,0.2,0,0.2-0.1,0.2c-0.1,0-0.1,0-0.1-0.1C142.1,46,142.1,46,142.3,46
		L142.3,46z"/>
	<path id="XMLID_310_" class="st3" d="M179.7,73.9l0.1,15.9c0,4.8-0.7,7.2-2.1,7.2c-0.2,0-0.5-0.1-0.8-0.4c-0.3-0.3-0.5-0.5-0.6-0.7
		c0.7-1.6,1-7.5,1-17.5c0-2-0.1-4.7-0.4-8.3s-0.4-6-0.4-7.1l-0.6-1.3l0.3-1.2c-0.8-2-2.4-6.2-4.7-12.6c-3.3-9.3-5-14.7-5.1-16.2
		l1.4-1.1c0.7,0.1,1.6,2.2,2.9,6.4c1.3,4.2,2.6,8.3,3.8,12.5c1.3,4.2,2.1,6.3,2.7,6.4l0.4-1.8l-0.2-0.5c0.5-0.6,1.1-3,1.9-7.1
		c0.8-4.2,1.7-8.1,2.6-11.8c0.9-3.7,1.8-5.6,2.6-5.6c0.8,0,1.3,0.4,1.3,1.1c0,0.7-0.4,2.3-1.1,4.9c-0.7,2.5-1.4,4.8-2,6.9
		c-0.6,2.1-1.1,3.7-1.4,4.8c-0.3,1.1-0.7,2.6-1,4.3c-0.8,3.3-1.2,6.3-1.2,9.1c0.3,0.8,0.5,1.4,0.5,1.7l-0.6,2.9L179.7,73.9z"/>
</g>
<g id="XMLID_279_">
</g>
<g id="XMLID_313_">
</g>
<g id="XMLID_314_">
</g>
<g id="XMLID_315_">
</g>
<g id="XMLID_316_">
</g>
<g id="XMLID_318_">
</g>
<g id="XMLID_319_">
</g>
<g id="XMLID_320_">
</g>
<g id="XMLID_324_">
</g>
<g id="XMLID_325_">
</g>
<g id="XMLID_326_">
</g>
<g id="XMLID_333_">
</g>
<g id="XMLID_334_">
</g>
<g id="XMLID_335_">
</g>
<g id="XMLID_344_">
</g>
</svg>
